<svg width="19" height="19" viewBox="0 0 19 19" fill="none" xmlns="http://www.w3.org/2000/svg">
<path d="M2.7 0.75C3.7 -0.25 5.4 -0.25 6.4 0.75L7.6 2.05C8.6 3.05 8.6 4.75 7.6 5.75L7.1 6.25C7.1 6.35 7.1 6.55 7.3 6.75C7.7 7.45 8.3 8.25 9.5 9.45C10.6 10.45 11.5 11.25 12.1 11.55L12.7 11.75L13.2 11.25C14.2 10.25 15.9 10.25 16.9 11.25L18.1 12.45C19.1 13.45 19.1 15.15 18.1 16.15C17.4974 16.8452 16.8634 17.5125 16.2 18.15C15.6396 18.4641 15.0147 18.6454 14.3732 18.6801C13.7318 18.7148 13.091 18.6018 12.5 18.35C12.2624 18.2603 12.0288 18.1602 11.8 18.05L12.2 17.15L11.8 18.15C10 17.15 7.8 15.65 5.5 13.35C3.68252 11.5848 2.1328 9.56344 0.9 7.35C0.5 6.55 0.1 5.75 0 5.15V4.05C0 3.85 1.78814e-07 3.45 0.3 3.05L2.7 0.75ZM12.7 16.15C13.0801 16.3368 13.4838 16.4713 13.9 16.55C14.5 16.55 14.9 16.45 15.2 16.25L15.5 15.95C15.89 15.572 16.2573 15.1713 16.6 14.75H16.7C17 14.45 17 14.05 16.7 13.75L15.5 12.65C15.3739 12.5442 15.2146 12.4862 15.05 12.4862C14.8854 12.4862 14.7261 12.5442 14.6 12.65L14 13.15C13.6 13.65 13 13.75 12.6 13.65C12.1 13.65 11.6 13.45 11.2 13.25C10.3 12.75 9.2 11.95 8.1 10.75C6.9 9.55 6.1 8.55 5.6 7.65C5.3 7.25 5.1 6.65 5.1 6.25C5.1 5.75 5.1 5.25 5.6 4.85L6.2 4.25C6.4 3.95 6.4 3.55 6.2 3.35L4.9 2.15C4.83482 2.08348 4.75703 2.03063 4.67118 1.99456C4.58532 1.95848 4.49313 1.9399 4.4 1.9399C4.30687 1.9399 4.21468 1.95848 4.12883 1.99456C4.04297 2.03063 3.96518 2.08348 3.9 2.15L1.9 4.35V4.65L2.7 6.35C3.82695 8.37661 5.24165 10.2292 6.9 11.85C9.1 13.95 11.1 15.45 12.6 16.15H12.7Z" fill="#4688F4"/>
</svg>
