<svg width="16" height="21" viewBox="0 0 16 21" fill="none" xmlns="http://www.w3.org/2000/svg">
<path d="M8 21.0011C5.71 21.0011 0 12.0111 0 7.74109C0.0169315 6.70755 0.237304 5.68746 0.648532 4.7391C1.05976 3.79073 1.65379 2.93267 2.39668 2.21392C3.13958 1.49516 4.0168 0.929802 4.97822 0.550121C5.93965 0.17044 6.96646 -0.0161221 8 0.00109136C12.42 0.00109136 16 3.46109 16 7.74109C16 12.0011 10.29 21.0011 8 21.0011ZM8 2.00109C4.62 2.00109 2 4.63109 2 7.74109C2 8.44109 2.25 9.52109 2.79 10.8811C3.8735 13.5306 5.37601 15.9887 7.24 18.1611C7.54 18.4811 7.8 18.7111 8 18.8611C8.2 18.7111 8.45 18.4811 8.76 18.1611C9.5 17.3711 10.35 16.2411 11.16 14.9211C11.9566 13.6349 12.6424 12.2834 13.21 10.8811C13.75 9.52109 14 8.43109 14 7.74109C14 4.64109 11.38 2.00109 8 2.00109ZM8 12.0011C6.93913 12.0011 5.92172 11.5797 5.17157 10.8295C4.42143 10.0794 4 9.06196 4 8.00109C4 6.94023 4.42143 5.92281 5.17157 5.17266C5.92172 4.42252 6.93913 4.00109 8 4.00109C9.06087 4.00109 10.0783 4.42252 10.8284 5.17266C11.5786 5.92281 12 6.94023 12 8.00109C12 9.06196 11.5786 10.0794 10.8284 10.8295C10.0783 11.5797 9.06087 12.0011 8 12.0011ZM8 6.00109C7.46957 6.00109 6.96086 6.21181 6.58579 6.58688C6.21071 6.96195 6 7.47066 6 8.00109C6 8.53152 6.21071 9.04023 6.58579 9.4153C6.96086 9.79038 7.46957 10.0011 8 10.0011C8.53043 10.0011 9.03914 9.79038 9.41421 9.4153C9.78929 9.04023 10 8.53152 10 8.00109C10 7.47066 9.78929 6.96195 9.41421 6.58688C9.03914 6.21181 8.53043 6.00109 8 6.00109Z" fill="#1A1A3F"/>
</svg>
