<svg width="12" height="18" viewBox="0 0 12 18" fill="none" xmlns="http://www.w3.org/2000/svg">
<path d="M1.2708 5.40467C1.2708 7.88743 3.2835 9.90015 5.76628 9.90015C8.2491 9.90015 10.2617 7.88743 10.2617 5.40467C10.2617 2.92188 8.2491 0.90918 5.76628 0.90918C3.2835 0.90918 1.2708 2.92188 1.2708 5.40467ZM9.18284 5.40467C9.18284 7.29159 7.65324 8.82124 5.76628 8.82124C3.87937 8.82124 2.34972 7.29159 2.34972 5.40467C2.34972 3.51775 3.87937 1.98809 5.76628 1.98809C7.65324 1.98809 9.18284 3.51775 9.18284 5.40467ZM8.26196 16.9349C8.86991 17.5429 9.85546 17.5429 10.4634 16.9349C11.0714 16.3271 11.0714 15.3414 10.4634 14.7335L8.78053 13.0506C9.65427 12.6702 10.4514 12.1254 11.1298 11.4411C11.6892 10.8768 11.6852 9.96599 11.121 9.40667C10.5568 8.84727 9.64601 8.85124 9.08661 9.41548C8.20687 10.3028 7.02238 10.7993 5.76628 10.7993C4.52498 10.7993 3.3535 10.3146 2.47629 9.44579C1.91183 8.8867 1.001 8.89098 0.441892 9.45545C-0.117213 10.0199 -0.112865 10.9307 0.451601 11.4899C0.85219 11.8867 1.29404 12.2364 1.76931 12.5333C2.02198 12.6912 2.35479 12.6142 2.51265 12.3615C2.6705 12.1089 2.59363 11.7761 2.34095 11.6182C1.93353 11.3638 1.55461 11.0638 1.21086 10.7233C1.06975 10.5836 1.06866 10.3558 1.20843 10.2147C1.34821 10.0736 1.57592 10.0725 1.71704 10.2123C2.79574 11.2808 4.23987 11.8782 5.76628 11.8782C7.31092 11.8782 8.77095 11.2663 9.85281 10.1751C9.99268 10.034 10.2204 10.033 10.3614 10.1729C10.5024 10.3127 10.5035 10.5404 10.3636 10.6815C9.60401 11.4477 8.67191 12.0094 7.64684 12.3199C7.25677 12.4381 7.13357 12.9294 7.42181 13.2177L9.70048 15.4964C9.8871 15.683 9.8871 15.9855 9.70048 16.172C9.51393 16.3586 9.21144 16.3586 9.02489 16.172L6.14778 13.2949C5.93708 13.0843 5.59547 13.0843 5.38485 13.2949L2.50772 16.172C2.32115 16.3586 2.01865 16.3586 1.83207 16.172C1.6455 15.9855 1.6455 15.683 1.83207 15.4964L4.1108 13.2177C4.32145 13.007 4.32145 12.6654 4.1108 12.4547C3.90012 12.2441 3.55856 12.2441 3.34789 12.4547L1.06916 14.7335C0.461248 15.3414 0.461248 16.3271 1.06916 16.9349C1.67708 17.5429 2.66271 17.5429 3.27063 16.9349L5.76628 14.4393L8.26196 16.9349ZM3.42864 5.40467C3.42864 4.11362 4.47527 3.06702 5.76628 3.06702C6.06425 3.06702 6.30573 3.30853 6.30573 3.60647C6.30573 3.90441 6.06425 4.14593 5.76628 4.14593C5.07114 4.14593 4.50753 4.70948 4.50753 5.40467C4.50753 6.09985 5.07114 6.66341 5.76628 6.66341C6.4615 6.66341 7.02503 6.09985 7.02503 5.40467C7.02503 5.13123 6.93822 4.87233 6.77942 4.6575C6.6023 4.41792 6.65295 4.08013 6.89256 3.90302C7.13209 3.72591 7.46988 3.77655 7.647 4.01613C7.94194 4.4151 8.10393 4.89836 8.10393 5.40467C8.10393 6.69572 7.05737 7.74234 5.76628 7.74234C4.47527 7.74234 3.42864 6.69572 3.42864 5.40467Z" fill="white"/>
</svg>
