<svg width="17" height="15" viewBox="0 0 17 15" fill="none" xmlns="http://www.w3.org/2000/svg">
<path fill-rule="evenodd" clip-rule="evenodd" d="M1.63879 6.56325C5.88814 4.53125 8.71701 3.181 10.1375 2.52593C14.1805 0.667746 15.0303 0.346871 15.5767 0.333496C15.6981 0.333496 15.9652 0.360246 16.1473 0.520683C16.293 0.654371 16.3294 0.828121 16.3537 0.961809C16.378 1.0955 16.4023 1.37625 16.378 1.59018C16.1594 4.13018 15.2125 10.2931 14.7268 13.1272C14.5204 14.3304 14.1197 14.7315 13.7312 14.7716C12.8813 14.8518 12.2379 14.1566 11.4244 13.5684C10.1375 12.646 9.42114 12.0711 8.17064 11.1621C6.72587 10.1193 7.66073 9.5445 8.48628 8.60868C8.70483 8.36806 12.4322 4.62481 12.505 4.29062C12.5171 4.2505 12.5171 4.09006 12.4322 4.00987C12.3471 3.92968 12.2257 3.95637 12.1286 3.98312C11.995 4.00987 9.95539 5.50718 5.98528 8.46162C5.40246 8.90281 4.88043 9.11668 4.40692 9.10331C3.88483 9.08993 2.88929 8.78243 2.13653 8.51512C1.22596 8.19425 0.497488 8.02043 0.558229 7.459C0.594626 7.16487 0.958892 6.87075 1.63879 6.56325Z" fill="white"/>
</svg>
