<svg width="17" height="18" viewBox="0 0 17 18" fill="none" xmlns="http://www.w3.org/2000/svg">
<path fill-rule="evenodd" clip-rule="evenodd" d="M14.2574 3.08863C12.7298 1.5275 10.6983 0.667441 8.53392 0.666504C4.07427 0.666504 0.444651 4.37119 0.442823 8.92475C0.442275 10.3803 0.814786 11.8011 1.52288 13.0536L0.375 17.3332L4.66421 16.1848C5.84597 16.8426 7.17654 17.1895 8.53063 17.19H8.53398C12.9932 17.19 16.6231 13.4848 16.625 8.93119C16.6258 6.72457 15.7849 4.64963 14.2574 3.08863ZM8.53398 15.7952H8.5313C7.32462 15.7948 6.14103 15.4638 5.10856 14.8383L4.86292 14.6897L2.31769 15.3711L2.99702 12.8381L2.83712 12.5783C2.164 11.4854 1.80843 10.2223 1.80898 8.92513C1.81044 5.14044 4.82721 2.06132 8.53672 2.06132C10.3329 2.062 12.0214 2.77688 13.2911 4.0745C14.5608 5.372 15.2595 7.09657 15.2588 8.93075C15.2573 12.7158 12.2406 15.7952 8.53398 15.7952ZM12.2228 10.6541C12.0206 10.5508 11.0267 10.0516 10.8414 9.98269C10.6561 9.91394 10.5213 9.87944 10.3865 10.0861C10.2517 10.2926 9.86425 10.7574 9.74633 10.8952C9.62836 11.0328 9.51044 11.0501 9.30831 10.9468C9.10612 10.8436 8.45476 10.6256 7.6825 9.9225C7.08154 9.37538 6.67581 8.69963 6.5579 8.49294C6.43993 8.28638 6.54529 8.17469 6.64656 8.07182C6.73748 7.97932 6.84869 7.83075 6.94985 7.71025C7.05095 7.58982 7.08458 7.50369 7.15198 7.36594C7.21944 7.22825 7.18574 7.10769 7.1351 7.0045C7.08458 6.90113 6.68026 5.88538 6.51177 5.47219C6.34773 5.06988 6.181 5.12432 6.05693 5.11794C5.93914 5.112 5.80423 5.11063 5.66943 5.11063C5.5347 5.11063 5.31569 5.16232 5.13032 5.36888C4.94507 5.5755 4.42277 6.07475 4.42277 7.0905C4.42277 8.10619 5.14714 9.08738 5.24829 9.22519C5.34933 9.36288 6.67386 11.4472 8.70186 12.3411C9.18412 12.5538 9.56072 12.6807 9.85437 12.7759C10.3387 12.9329 10.7794 12.9107 11.1277 12.8576C11.5161 12.7984 12.3238 12.3584 12.4922 11.8764C12.6607 11.3943 12.6607 10.9811 12.6102 10.8951C12.5597 10.8091 12.4249 10.7574 12.2228 10.6541Z" fill="white"/>
</svg>
