<svg width="18" height="10" viewBox="0 0 18 10" fill="none" xmlns="http://www.w3.org/2000/svg">
<path d="M17.2721 0.300444C17.648 0.300444 17.9086 0.675241 17.7779 1.02763C17.1003 2.85299 16.2645 4.32843 15.2659 5.45089C16.1803 6.1179 17.0053 7.2918 17.7634 8.9633C17.8864 9.23462 17.7663 9.55434 17.4949 9.67738C17.2235 9.80041 16.9038 9.68026 16.7808 9.40893C15.9487 7.57419 15.069 6.46279 14.1829 6.05752C13.8369 5.89926 13.759 5.44224 14.0331 5.17832C14.9834 4.26321 15.8003 2.99799 16.4794 1.37937H14.0545C13.1957 3.71479 12.2203 5.26014 11.0901 6.01544C10.7316 6.25497 10.2509 5.99806 10.2509 5.56692V3.95643V1.1048H6.75492C6.45699 1.1048 6.21546 0.863274 6.21546 0.56534C6.21546 0.267405 6.45699 0.0258789 6.75492 0.0258789H10.7904C11.0883 0.0258789 11.3298 0.267405 11.3298 0.56534V3.95643V4.32056C11.9744 3.51898 12.5915 2.29927 13.1661 0.661363C13.2419 0.445161 13.446 0.300444 13.675 0.300444H17.2721ZM5.17869 1.40074C5.40295 1.94939 5.67159 2.49773 5.98262 3.00625C6.41809 3.71814 6.89478 4.28284 7.40231 4.66022V4.11087V2.68586C7.40231 2.38792 7.64382 2.1464 7.94179 2.1464C8.23968 2.1464 8.48124 2.38792 8.48124 2.68586V5.56692C8.48124 5.94165 8.10854 6.20222 7.7566 6.07365C6.70244 5.6884 5.81487 4.7997 5.06223 3.56924C4.71821 3.0068 4.42472 2.40771 4.17998 1.80895C4.11809 1.65755 4.0625 1.51377 4.01317 1.37937H2.1626C3.60247 6.11074 6.32498 8.49507 10.3921 8.63961C10.4462 8.48229 10.5107 8.33112 10.5914 8.18268C10.9332 7.55471 11.4769 7.15419 12.2336 7.15543C13.194 7.15707 13.8389 7.69348 14.1111 8.64663H14.7462C15.0441 8.64663 15.2856 8.88818 15.2856 9.18608C15.2856 9.48405 15.0441 9.72553 14.7462 9.72553H13.675C13.4074 9.72553 13.1802 9.52925 13.1414 9.26439C13.032 8.51844 12.7581 8.2352 12.2319 8.23434C11.9184 8.23387 11.7074 8.38925 11.5391 8.69837C11.5752 8.63213 11.2531 9.72553 10.7904 9.72553C5.78345 9.72553 2.46962 6.76512 0.926709 0.978894C0.835393 0.636428 1.09352 0.300444 1.44796 0.300444H4.39772C4.63462 0.300444 4.8438 0.455003 4.91338 0.681451C4.9559 0.819825 5.04455 1.07254 5.17869 1.40074Z" fill="white"/>
</svg>
